{
  "accessors": [
    {
      "bufferView": 2,
      "componentType": 5126,
      "count": 10738,
      "max": [
        1.5853673219680786,
        2.2223172187805176,
        2.1227548122406006
      ],
      "min": [
        -1.57459557056427,
        -2.529916763305664,
        -1.6538376808166504
      ],
      "type": "VEC3"
    },
    {
      "bufferView": 2,
      "byteOffset": 128856,
      "componentType": 5126,
      "count": 10738,
      "max": [
        0.9993152022361755,
        0.9986169934272766,
        0.9999006390571594
      ],
      "min": [
        -0.9993152022361755,
        -0.9994123578071594,
        -0.9999470710754395
      ],
      "type": "VEC3"
    },
    {
      "bufferView": 0,
      "componentType": 5125,
      "count": 64416,
      "type": "SCALAR"
    },
    {
      "bufferView": 2,
      "byteOffset": 257712,
      "componentType": 5126,
      "count": 140,
      "max": [
        1.0000001192092896,
        8.791964530944824,
        1.1920928955078125e-07
      ],
      "min": [
        -5.845791816711426,
        -1.023637294769287,
        -2.0643019676208496
      ],
      "type": "VEC3"
    },
    {
      "bufferView": 2,
      "byteOffset": 259392,
      "componentType": 5126,
      "count": 140,
      "max": [
        0.9836488962173462,
        0.9702109098434448,
        0.7994952201843262
      ],
      "min": [
        -0.9705673456192017,
        -0.9838564991950989,
        -0.7213315963745117
      ],
      "type": "VEC3"
    },
    {
      "bufferView": 1,
      "componentType": 5126,
      "count": 140,
      "max": [
        1.0,
        1.0
      ],
      "min": [
        0.0,
        0.01000000536441803
      ],
      "type": "VEC2"
    },
    {
      "bufferView": 0,
      "byteOffset": 257664,
      "componentType": 5125,
      "count": 456,
      "type": "SCALAR"
    },
    {
      "bufferView": 2,
      "byteOffset": 261072,
      "componentType": 5126,
      "count": 228,
      "max": [
        0.5303168296813965,
        7.410933494567871,
        -1.8256092071533203
      ],
      "min": [
        -4.466991424560547,
        -0.5495193600654602,
        -2.242593765258789
      ],
      "type": "VEC3"
    },
    {
      "bufferView": 2,
      "byteOffset": 263808,
      "componentType": 5126,
      "count": 228,
      "max": [
        0.9836488962173462,
        0.9583200812339783,
        0.36725690960884094
      ],
      "min": [
        -0.9586921334266663,
        -0.9838564991950989,
        -0.9994588494300842
      ],
      "type": "VEC3"
    },
    {
      "bufferView": 1,
      "byteOffset": 1120,
      "componentType": 5126,
      "count": 228,
      "max": [
        1.0,
        0.5435978174209595
      ],
      "min": [
        0.0,
        0.0005978066474199295
      ],
      "type": "VEC2"
    },
    {
      "bufferView": 0,
      "byteOffset": 259488,
      "componentType": 5125,
      "count": 648,
      "type": "SCALAR"
    },
    {
      "bufferView": 2,
      "byteOffset": 266544,
      "componentType": 5126,
      "count": 125,
      "max": [
        1.3818347454071045,
        1.2810471057891846,
        0.6396075487136841
      ],
      "min": [
        -1.3818349838256836,
        -1.258598804473877,
        -1.8295364379882813
      ],
      "type": "VEC3"
    },
    {
      "bufferView": 2,
      "byteOffset": 268044,
      "componentType": 5126,
      "count": 125,
      "max": [
        0.9841205477714539,
        0.988336443901062,
        0.9843932390213013
      ],
      "min": [
        -0.9841204881668091,
        -0.9914306402206421,
        -0.9876738786697388
      ],
      "type": "VEC3"
    },
    {
      "bufferView": 1,
      "byteOffset": 2944,
      "componentType": 5126,
      "count": 125,
      "max": [
        0.8750001192092896,
        1.0000001192092896
      ],
      "min": [
        0.1250000149011612,
        0.0
      ],
      "type": "VEC2"
    },
    {
      "bufferView": 0,
      "byteOffset": 262080,
      "componentType": 5125,
      "count": 576,
      "type": "SCALAR"
    },
    {
      "bufferView": 2,
      "byteOffset": 269544,
      "componentType": 5126,
      "count": 250,
      "max": [
        0.8395062685012817,
        0.9967085123062134,
        0.8395062685012817
      ],
      "min": [
        -4.909245014190674,
        -0.8395062685012817,
        -1.348145604133606
      ],
      "type": "VEC3"
    },
    {
      "bufferView": 2,
      "byteOffset": 272544,
      "componentType": 5126,
      "count": 250,
      "max": [
        1.0,
        1.0,
        1.0
      ],
      "min": [
        -1.0,
        -1.0,
        -1.0
      ],
      "type": "VEC3"
    },
    {
      "bufferView": 1,
      "byteOffset": 3944,
      "componentType": 5126,
      "count": 250,
      "max": [
        0.8750001192092896,
        1.0000001192092896
      ],
      "min": [
        0.1250000149011612,
        0.0
      ],
      "type": "VEC2"
    },
    {
      "bufferView": 0,
      "byteOffset": 264384,
      "componentType": 5125,
      "count": 1152,
      "type": "SCALAR"
    },
    {
      "bufferView": 2,
      "byteOffset": 275544,
      "componentType": 5126,
      "count": 2470,
      "max": [
        4.711750030517578,
        1.0120408535003662,
        0.13748770952224731
      ],
      "min": [
        -0.6161140203475952,
        -4.429397106170654,
        -0.36695054173469543
      ],
      "type": "VEC3"
    },
    {
      "bufferView": 2,
      "byteOffset": 305184,
      "componentType": 5126,
      "count": 2470,
      "max": [
        0.9955006241798401,
        0.995878279209137,
        0.9999756813049316
      ],
      "min": [
        -0.9995322823524475,
        -0.9973883628845215,
        -0.9994855523109436
      ],
      "type": "VEC3"
    },
    {
      "bufferView": 0,
      "byteOffset": 268992,
      "componentType": 5125,
      "count": 14088,
      "type": "SCALAR"
    },
    {
      "bufferView": 2,
      "byteOffset": 334824,
      "componentType": 5126,
      "count": 1656,
      "max": [
        4.481985092163086,
        0.7802482843399048,
        0.02334083989262581
      ],
      "min": [
        -0.4522254168987274,
        -4.267587184906006,
        -0.22336019575595856
      ],
      "type": "VEC3"
    },
    {
      "bufferView": 2,
      "byteOffset": 354696,
      "componentType": 5126,
      "count": 1656,
      "max": [
        0.7562757730484009,
        0.7746621370315552,
        0.9998996257781982
      ],
      "min": [
        -0.6877778172492981,
        -0.6700567007064819,
        0.6283254027366638
      ],
      "type": "VEC3"
    },
    {
      "bufferView": 0,
      "byteOffset": 325344,
      "componentType": 5125,
      "count": 9204,
      "type": "SCALAR"
    },
    {
      "bufferView": 2,
      "byteOffset": 374568,
      "componentType": 5126,
      "count": 688,
      "max": [
        0.35412463545799255,
        0.34728044271469116,
        0.26144444942474365
      ],
      "min": [
        -0.35412460565567017,
        -0.3472801744937897,
        -0.26836204528808594
      ],
      "type": "VEC3"
    },
    {
      "bufferView": 2,
      "byteOffset": 382824,
      "componentType": 5126,
      "count": 688,
      "max": [
        0.995972216129303,
        0.9999988079071045,
        0.9986141920089722
      ],
      "min": [
        -0.9959722757339478,
        -0.999998927116394,
        -1.0
      ],
      "type": "VEC3"
    },
    {
      "bufferView": 1,
      "byteOffset": 5944,
      "componentType": 5126,
      "count": 688,
      "max": [
        0.8750001192092896,
        1.0000001192092896
      ],
      "min": [
        0.125,
        0.0
      ],
      "type": "VEC2"
    },
    {
      "bufferView": 0,
      "byteOffset": 362160,
      "componentType": 5125,
      "count": 3456,
      "type": "SCALAR"
    }
  ],
  "asset": {
    "extras": {
      "author": "Kinga Kroliczek (https://sketchfab.com/kinga_kroliczek)",
      "license": "CC-BY-4.0 (http://creativecommons.org/licenses/by/4.0/)",
      "source": "https://sketchfab.com/3d-models/sheep-fb30303a25dc4badad445217600206e5",
      "title": "Sheep"
    },
    "generator": "Sketchfab-15.8.0",
    "version": "2.0"
  },
  "bufferViews": [
    {
      "buffer": 0,
      "byteLength": 375984,
      "name": "floatBufferViews",
      "target": 34963
    },
    {
      "buffer": 0,
      "byteLength": 11448,
      "byteOffset": 375984,
      "byteStride": 8,
      "name": "floatBufferViews",
      "target": 34962
    },
    {
      "buffer": 0,
      "byteLength": 391080,
      "byteOffset": 387432,
      "byteStride": 12,
      "name": "floatBufferViews",
      "target": 34962
    }
  ],
  "buffers": [
    {
      "byteLength": 778512,
      "uri": "scene.bin"
    }
  ],
  "extensionsUsed": [
    "KHR_materials_specular"
  ],
  "materials": [
    {
      "doubleSided": true,
      "extensions": {
        "KHR_materials_specular": {
          "specularColorFactor": [
            1.0,
            1.0,
            1.0
          ],
          "specularFactor": 1.0
        }
      },
      "name": "material",
      "pbrMetallicRoughness": {
        "baseColorFactor": [
          0.7395440285968737,
          0.7061026971103705,
          0.603214741299807,
          1.0
        ],
        "metallicFactor": 0.0
      }
    },
    {
      "doubleSided": true,
      "extensions": {
        "KHR_materials_specular": {
          "specularColorFactor": [
            1.0,
            1.0,
            1.0
          ],
          "specularFactor": 1.0
        }
      },
      "name": "Skin",
      "pbrMetallicRoughness": {
        "baseColorFactor": [
          0.65085,
          0.41068,
          0.315901,
          1.0
        ],
        "metallicFactor": 0.0,
        "roughnessFactor": 0.9468794929138077
      }
    },
    {
      "doubleSided": true,
      "extensions": {
        "KHR_materials_specular": {
          "specularColorFactor": [
            1.0,
            1.0,
            1.0
          ],
          "specularFactor": 1.0
        }
      },
      "name": "Eyes_Feet",
      "pbrMetallicRoughness": {
        "baseColorFactor": [
          0.0,
          0.0,
          0.0,
          1.0
        ],
        "metallicFactor": 0.0
      }
    }
  ],
  "meshes": [
    {
      "name": "Fur_Fur_0",
      "primitives": [
        {
          "attributes": {
            "NORMAL": 1,
            "POSITION": 0
          },
          "indices": 2,
          "material": 0,
          "mode": 4
        }
      ]
    },
    {
      "name": "Legs_Skin_0",
      "primitives": [
        {
          "attributes": {
            "NORMAL": 4,
            "POSITION": 3,
            "TEXCOORD_0": 5
          },
          "indices": 6,
          "material": 1,
          "mode": 4
        }
      ]
    },
    {
      "name": "Legs_Eyes_Feet_0",
      "primitives": [
        {
          "attributes": {
            "NORMAL": 8,
            "POSITION": 7,
            "TEXCOORD_0": 9
          },
          "indices": 10,
          "material": 2,
          "mode": 4
        }
      ]
    },
    {
      "name": "Head_Skin_0",
      "primitives": [
        {
          "attributes": {
            "NORMAL": 12,
            "POSITION": 11,
            "TEXCOORD_0": 13
          },
          "indices": 14,
          "material": 1,
          "mode": 4
        }
      ]
    },
    {
      "name": "Eyes_Eyes_Feet_0",
      "primitives": [
        {
          "attributes": {
            "NORMAL": 16,
            "POSITION": 15,
            "TEXCOORD_0": 17
          },
          "indices": 18,
          "material": 2,
          "mode": 4
        }
      ]
    },
    {
      "name": "Ear_Fur_0",
      "primitives": [
        {
          "attributes": {
            "NORMAL": 20,
            "POSITION": 19
          },
          "indices": 21,
          "material": 0,
          "mode": 4
        }
      ]
    },
    {
      "name": "Ear_Skin_0",
      "primitives": [
        {
          "attributes": {
            "NORMAL": 23,
            "POSITION": 22
          },
          "indices": 24,
          "material": 1,
          "mode": 4
        }
      ]
    },
    {
      "name": "Nose_Eyes_Feet_0",
      "primitives": [
        {
          "attributes": {
            "NORMAL": 26,
            "POSITION": 25,
            "TEXCOORD_0": 27
          },
          "indices": 28,
          "material": 2,
          "mode": 4
        }
      ]
    }
  ],
  "nodes": [
    {
      "children": [
        1
      ],
      "matrix": [
        1.0,
        0.0,
        0.0,
        0.0,
        0.0,
        2.220446049250313e-16,
        -1.0,
        0.0,
        0.0,
        1.0,
        2.220446049250313e-16,
        0.0,
        0.0,
        0.0,
        0.0,
        1.0
      ],
      "name": "Sketchfab_model"
    },
    {
      "children": [
        2
      ],
      "matrix": [
        0.009999999776482582,
        0.0,
        0.0,
        0.0,
        0.0,
        0.0,
        0.009999999776482582,
        0.0,
        0.0,
        -0.009999999776482582,
        0.0,
        0.0,
        0.0,
        0.0,
        0.0,
        1.0
      ],
      "name": "0658a05f93314b4caa5fcce2b0ffa940.fbx"
    },
    {
      "children": [
        3,
        5,
        8,
        10,
        12,
        15
      ],
      "name": "RootNode"
    },
    {
      "children": [
        4
      ],
      "matrix": [
        136.9542694091797,
        0.0,
        0.0,
        0.0,
        0.0,
        -2.231268261775547e-05,
        -136.95426940917787,
        0.0,
        0.0,
        136.95426940917787,
        -2.231268261775547e-05,
        0.0,
        0.0,
        0.0,
        0.0,
        1.0
      ],
      "name": "Fur"
    },
    {
      "mesh": 0,
      "name": "Fur_Fur_0"
    },
    {
      "children": [
        6,
        7
      ],
      "matrix": [
        36.05339119570923,
        -2.5210986864752165,
        2.3483777919628426e-07,
        0.0,
        0.17586268323640322,
        2.514950201182069,
        -36.053391700365864,
        0.0,
        9.066189101188808,
        129.6525464105133,
        9.088301726065533,
        0.0,
        87.95702362060547,
        -52.478363037109375,
        141.3264923095703,
        1.0
      ],
      "name": "Legs"
    },
    {
      "mesh": 1,
      "name": "Legs_Skin_0"
    },
    {
      "mesh": 2,
      "name": "Legs_Eyes_Feet_0"
    },
    {
      "children": [
        9
      ],
      "matrix": [
        80.93961334228516,
        0.0,
        0.0,
        0.0,
        0.0,
        -1.318673679543724e-05,
        -80.93961334228409,
        0.0,
        0.0,
        80.93961334228409,
        -1.318673679543724e-05,
        0.0,
        0.0,
        191.08644104003906,
        291.56585693359375,
        1.0
      ],
      "name": "Head"
    },
    {
      "mesh": 3,
      "name": "Head_Skin_0"
    },
    {
      "children": [
        11
      ],
      "matrix": [
        25.15331376819238,
        -5.275678411205888,
        2.45505485736503,
        0.0,
        -1.0215703477467581,
        -14.72710056657572,
        -21.180613080636505,
        0.0,
        9.26389264844179,
        33.21359006108147,
        -23.540565003604712,
        0.0,
        52.14316940307617,
        153.71380615234375,
        349.8878173828125,
        1.0
      ],
      "name": "Eyes"
    },
    {
      "mesh": 4,
      "name": "Eyes_Eyes_Feet_0"
    },
    {
      "children": [
        13,
        14
      ],
      "matrix": [
        -35.225076974248154,
        -36.199361084899486,
        -1.916512021906732,
        0.0,
        36.20435358978081,
        -35.18419038282939,
        -0.8640331164684318,
        0.0,
        -1.2099260769076565,
        -3.3406715501933446,
        85.33727575630168,
        0.0,
        134.2356719970703,
        152.03265380859375,
        237.60232543945313,
        1.0
      ],
      "name": "Ear"
    },
    {
      "mesh": 5,
      "name": "Ear_Fur_0"
    },
    {
      "mesh": 6,
      "name": "Ear_Skin_0"
    },
    {
      "children": [
        16
      ],
      "matrix": [
        33.88083267211914,
        0.0,
        0.0,
        0.0,
        0.0,
        10.771891597347512,
        -32.12284907136016,
        0.0,
        0.0,
        32.12284907136016,
        10.771891597347512,
        0.0,
        0.0,
        85.7774658203125,
        383.4385681152344,
        1.0
      ],
      "name": "Nose"
    },
    {
      "mesh": 7,
      "name": "Nose_Eyes_Feet_0"
    }
  ],
  "scene": 0,
  "scenes": [
    {
      "name": "Sketchfab_Scene",
      "nodes": [
        0
      ]
    }
  ]
}
